<?xml version="1.0" encoding="utf-8"?>
<!-- Generator: Adobe Illustrator 15.0.0, SVG Export Plug-In . SVG Version: 6.00 Build 0)  -->
<!DOCTYPE svg PUBLIC "-//W3C//DTD SVG 1.1//EN" "http://www.w3.org/Graphics/SVG/1.1/DTD/svg11.dtd">
<svg version="1.1" id="Layer_1" xmlns="http://www.w3.org/2000/svg" xmlns:xlink="http://www.w3.org/1999/xlink" x="0px" y="0px"
	 width="1112.756px" height="392.935px" viewBox="-461.256 -160.92 1112.756 392.935"
	 enable-background="new -461.256 -160.92 1112.756 392.935" xml:space="preserve">
<g>
	<path fill="#223947" d="M49.518-18.448c7.349,0,13.995,1.432,19.945,4.295c5.955,2.865,11.021,6.688,15.204,11.457
		c4.18,4.774,7.487,10.28,9.908,16.524c2.424,6.252,3.78,12.746,4.083,19.492c0.142,2.208,0.225,4.786,0.225,7.718
		s-0.092,5.511-0.225,7.705c-0.294,6.758-1.65,13.266-4.083,19.496c-2.421,6.255-5.729,11.75-9.908,16.532
		c-4.191,4.773-9.263,8.592-15.204,11.465c-5.95,2.854-12.596,4.288-19.945,4.288c-4.555,0-8.63-0.443-12.23-1.323
		c-3.601-0.896-6.768-1.969-9.476-3.301c-2.71-1.314-5.034-2.754-6.939-4.296c-1.909-1.54-3.454-2.98-4.63-4.304v5.083
		c0,1.616-0.591,3.007-1.755,4.163c-1.185,1.196-2.575,1.759-4.195,1.759h-16.75c-1.613,0-3.012-0.563-4.183-1.759
		c-1.186-1.173-1.767-2.563-1.767-4.163V-52.162c0-1.612,0.581-3.01,1.767-4.187c1.171-1.173,2.562-1.764,4.183-1.764h16.75
		c1.612,0,3.01,0.591,4.195,1.764c1.165,1.177,1.755,2.575,1.755,4.187v46.938c1.176-1.323,2.721-2.756,4.63-4.297
		c1.905-1.553,4.229-2.985,6.939-4.296c2.716-1.323,5.875-2.428,9.476-3.304C40.888-18.013,44.963-18.448,49.518-18.448z
		 M70.012,34.873c-0.885-9.556-3.822-16.422-8.815-20.605c-4.991-4.188-11.088-6.277-18.281-6.277
		c-7.207,0-13.262,2.202-18.183,6.607c-4.924,4.408-7.755,10.43-8.491,18.064c-0.289,2.211-0.436,4.999-0.436,8.383
		s0.147,6.172,0.436,8.366c0.736,7.939,3.567,14.045,8.491,18.3c4.921,4.263,10.976,6.389,18.183,6.389
		c7.185,0,13.291-2.092,18.281-6.28c5-4.17,7.93-11.038,8.815-20.603C70.459,43.098,70.459,38.981,70.012,34.873z"/>
	<path fill="#223947" d="M96.237,41.037c0-8.225,1.242-15.975,3.735-23.24c2.512-7.269,6.112-13.584,10.803-18.952
		c4.715-5.36,10.401-9.584,17.084-12.675c6.675-3.087,14.128-4.627,22.361-4.627c8.225,0,15.678,1.507,22.36,4.508
		c6.683,3.021,12.378,7.057,17.068,12.127c4.707,5.067,8.35,11.018,10.912,17.851c2.563,6.83,3.852,13.991,3.852,21.486v9.92
		c0,1.607-0.586,3.016-1.759,4.179c-1.18,1.181-2.569,1.759-4.187,1.759H124.87c0,3.384,0.695,6.356,2.094,8.928
		c1.39,2.57,3.266,4.739,5.62,6.498c2.344,1.759,5.065,3.073,8.139,3.97c3.082,0.879,6.258,1.314,9.481,1.314
		c4.698,0,8.517-0.469,11.448-1.439c2.939-0.946,5.367-2.161,7.278-3.635c1.606-1.164,2.93-1.969,3.97-2.413
		c1.021-0.452,2.41-0.66,4.186-0.66h17.621c1.616,0,3.048,0.594,4.305,1.767c1.248,1.173,1.792,2.563,1.642,4.17
		c-0.15,2.061-1.29,4.716-3.4,7.939c-2.136,3.242-5.326,6.398-9.589,9.464c-4.262,3.082-9.505,5.745-15.754,7.939
		c-6.247,2.211-13.474,3.317-21.706,3.317c-8.233,0-15.687-1.434-22.361-4.306c-6.683-2.864-12.377-6.951-17.084-12.244
		c-4.69-5.275-8.291-11.557-10.786-18.826C97.472,57.888,96.237,49.855,96.237,41.037z M150.221,7.991
		c-4.264,0-7.906,0.624-10.904,1.867c-3.023,1.251-5.543,2.865-7.604,4.846s-3.643,4.183-4.74,6.611
		c-1.105,2.421-1.801,4.736-2.095,6.94h49.814c-0.294-2.204-0.854-4.519-1.659-6.94c-0.804-2.428-2.136-4.63-3.961-6.611
		c-1.851-1.98-4.264-3.594-7.278-4.846C158.771,8.615,154.928,7.991,150.221,7.991z"/>
	<path fill="#223947" d="M200.687,41.037c0-8.225,1.248-15.975,3.743-23.24c2.496-7.269,6.097-13.584,10.796-18.952
		c4.698-5.36,10.394-9.584,17.076-12.675c6.674-3.087,14.128-4.627,22.353-4.627c8.241,0,15.694,1.507,22.369,4.508
		c6.69,3.021,12.369,7.057,17.084,12.127c4.707,5.067,8.342,11.018,10.896,17.851c2.577,6.83,3.859,13.991,3.859,21.486v9.92
		c0,1.607-0.578,3.016-1.768,4.179c-1.171,1.181-2.569,1.759-4.187,1.759h-73.598c0,3.384,0.704,6.356,2.094,8.928
		c1.391,2.57,3.266,4.739,5.62,6.498c2.353,1.759,5.065,3.073,8.147,3.97c3.082,0.879,6.249,1.314,9.464,1.314
		c4.708,0,8.525-0.469,11.457-1.439c2.948-0.946,5.376-2.161,7.295-3.635c1.615-1.164,2.93-1.969,3.961-2.413
		c1.03-0.452,2.411-0.66,4.187-0.66h17.629c1.617,0,3.04,0.594,4.28,1.767c1.256,1.173,1.809,2.563,1.658,4.17
		c-0.151,2.061-1.273,4.716-3.409,7.939c-2.127,3.242-5.326,6.398-9.589,9.464c-4.254,3.082-9.513,5.745-15.753,7.939
		c-6.239,2.211-13.475,3.317-21.698,3.317c-8.225,0-15.679-1.434-22.361-4.306c-6.69-2.864-12.377-6.951-17.076-12.244
		c-4.707-5.275-8.3-11.557-10.804-18.826C201.918,57.888,200.687,49.855,200.687,41.037L200.687,41.037z M254.654,7.991
		c-4.255,0-7.89,0.624-10.896,1.867c-3.023,1.251-5.536,2.865-7.612,4.846c-2.052,1.98-3.634,4.183-4.724,6.611
		c-1.105,2.421-1.809,4.736-2.11,6.94h49.806c-0.294-2.204-0.846-4.519-1.65-6.94c-0.805-2.428-2.127-4.63-3.961-6.611
		s-4.255-3.594-7.271-4.846C263.23,8.615,259.361,7.991,254.654,7.991z"/>
	<path fill="#223947" d="M414.192,92.391c0,1.608-0.586,2.999-1.768,4.172c-1.18,1.171-2.569,1.759-4.178,1.759h-16.749
		c-1.617,0-3.007-0.588-4.172-1.759c-1.188-1.173-1.775-2.563-1.775-4.172V36.418c0-8.818-2.052-15.875-6.163-21.159
		c-4.12-5.288-10.444-7.939-18.961-7.939c-7.788,0-13.919,2.651-18.399,7.939c-4.479,5.285-6.724,12.333-6.724,21.159v55.973
		c0,1.608-0.588,2.999-1.759,4.172c-1.174,1.163-2.571,1.759-4.172,1.759h-16.766c-1.608,0-3.007-0.588-4.172-1.759
		c-1.171-1.173-1.759-2.563-1.759-4.172V-52.162c0-1.612,0.588-3.01,1.759-4.187c1.173-1.173,2.563-1.764,4.172-1.764h16.766
		c1.608,0,3.007,0.591,4.172,1.764c1.171,1.177,1.759,2.575,1.759,4.187v46.938c3.817-3.819,8.308-6.977,13.448-9.481
		c5.143-2.496,11.239-3.743,18.3-3.743c8.951,0,16.438,1.393,22.469,4.183c6.014,2.796,10.862,6.544,14.538,11.243
		c3.67,4.697,6.274,10.178,7.822,16.414c1.542,6.252,2.312,12.821,2.312,19.723V92.391z M443.504-58.121
		c1.609,0,3.016,0.591,4.172,1.764c1.171,1.176,1.775,2.575,1.775,4.187v17.185c0,1.613-0.604,3.012-1.775,4.183
		c-1.173,1.178-2.563,1.769-4.172,1.769h-18.96c-1.608,0-3.015-0.591-4.188-1.769c-1.172-1.171-1.759-2.57-1.759-4.183V-52.17
		c0-1.612,0.587-3.01,1.759-4.187c1.189-1.173,2.579-1.764,4.188-1.764H443.504z M448.345,92.391c0,1.608-0.577,2.999-1.759,4.172
		c-1.173,1.163-2.579,1.759-4.178,1.759h-16.751c-1.615,0-3.021-0.588-4.179-1.759c-1.173-1.173-1.775-2.563-1.775-4.172V-10.304
		c0-1.614,0.595-3.012,1.775-4.191c1.174-1.17,2.563-1.767,4.179-1.767h16.751c1.615,0,3.023,0.589,4.178,1.767
		c1.182,1.18,1.759,2.569,1.759,4.191V92.391z"/>
	<path fill="#223947" d="M489.549,96.563c-1.038-1.173-1.842-2.413-2.428-3.744L442.827-8.767c-0.144-0.44-0.211-0.955-0.211-1.545
		c0-1.614,0.578-3.012,1.775-4.192c1.156-1.169,2.547-1.767,4.163-1.767h16.539c2.194,0,3.812,0.589,4.841,1.767
		c1.031,1.18,1.836,2.348,2.413,3.529l29.312,68.309l29.311-68.309c0.587-1.173,1.392-2.35,2.43-3.529
		c1.021-1.169,2.646-1.767,4.841-1.767h16.532c1.615,0,2.996,0.589,4.178,1.767c1.182,1.18,1.759,2.57,1.759,4.192
		c0,0.581-0.075,1.096-0.209,1.545L516.198,92.818c-0.588,1.323-1.391,2.571-2.413,3.744c-1.038,1.171-2.654,1.759-4.849,1.759
		h-14.53C492.195,98.321,490.57,97.75,489.549,96.563z"/>
	<path fill="#223947" d="M543.315,41.037c0-8.225,1.255-15.975,3.751-23.24c2.496-7.269,6.089-13.584,10.796-18.952
		c4.697-5.36,10.392-9.584,17.093-12.675c6.666-3.087,14.12-4.627,22.343-4.627c8.241,0,15.678,1.507,22.36,4.508
		c6.685,3.021,12.38,7.057,17.085,12.127c4.707,5.067,8.333,11.018,10.904,17.851c2.579,6.83,3.853,13.991,3.853,21.486v9.92
		c0,1.607-0.586,3.016-1.759,4.179c-1.182,1.181-2.563,1.759-4.171,1.759h-73.597c0,3.384,0.686,6.356,2.094,8.928
		c1.382,2.57,3.249,4.739,5.594,6.498c2.346,1.759,5.075,3.073,8.166,3.97c3.073,0.879,6.238,1.314,9.471,1.314
		c4.707,0,8.518-0.469,11.458-1.439c2.93-0.946,5.359-2.161,7.269-3.635c1.625-1.164,2.939-1.969,3.97-2.413
		c1.022-0.452,2.429-0.66,4.188-0.66h17.638c1.608,0,3.031,0.594,4.288,1.767c1.256,1.173,1.8,2.563,1.658,4.17
		c-0.16,2.061-1.29,4.716-3.409,7.939c-2.144,3.242-5.334,6.398-9.589,9.464c-4.255,3.082-9.515,5.745-15.762,7.939
		c-6.247,2.211-13.467,3.317-21.708,3.317c-8.223,0-15.677-1.434-22.351-4.306c-6.693-2.864-12.38-6.951-17.085-12.244
		c-4.698-5.275-8.3-11.557-10.796-18.826C544.554,57.888,543.315,49.855,543.315,41.037L543.315,41.037z M597.298,7.991
		c-4.253,0-7.896,0.624-10.895,1.867c-3.023,1.251-5.536,2.865-7.613,4.846c-2.051,1.98-3.635,4.183-4.723,6.611
		c-1.114,2.421-1.809,4.736-2.094,6.94h49.796c-0.292-2.204-0.854-4.519-1.648-6.94c-0.813-2.428-2.137-4.63-3.962-6.611
		c-1.852-1.98-4.263-3.594-7.286-4.846C605.85,8.615,602.005,7.991,597.298,7.991z"/>
</g>
<path fill="#F9B233" d="M-131.038,20.268h-84.179c-6.331,0-12.161-3.379-15.326-8.849l-42.079-72.894
	c-3.165-5.481-3.165-12.223,0-17.692l42.087-72.902c3.165-5.473,8.995-8.852,15.326-8.852h84.179c6.319,0,12.161,3.371,15.326,8.852
	l42.088,72.902c3.157,5.478,3.157,12.219,0,17.692l-42.088,72.902C-118.877,16.897-124.719,20.268-131.038,20.268z M-204.994-15.116
	h63.753l31.874-55.21l-31.874-55.203h-63.753l-31.875,55.203L-204.994-15.116z M-317.283,128.108h-84.192
	c-6.327,0-12.16-3.374-15.321-8.844l-42.092-72.91c-3.158-5.477-3.158-12.219,0-17.692l42.092-72.902
	c3.152-5.468,9.002-8.838,15.321-8.838h84.178c6.333,0,12.166,3.379,15.326,8.838l42.092,72.902c3.157,5.474,3.157,12.216,0,17.692
	l-42.092,72.91C-305.123,124.734-310.964,128.108-317.283,128.108z M-391.262,92.727h63.753l31.878-55.211l-31.878-55.211h-63.753
	l-31.874,55.211L-391.262,92.727z M-131.038,232.015h-84.179c-6.331,0-12.161-3.393-15.326-8.86l-42.092-72.902
	c-3.162-5.486-3.162-12.21,0-17.695l42.092-72.91c3.165-5.47,8.995-8.845,15.326-8.845h84.179c6.319,0,12.161,3.384,15.326,8.845
	l42.088,72.91c3.157,5.485,3.157,12.209,0,17.695l-42.088,72.902C-118.877,228.631-124.719,232.015-131.038,232.015z
	 M-204.994,196.607h63.753l31.874-55.207l-31.874-55.207h-63.753l-31.875,55.207L-204.994,196.607z"/>
</svg>
